<?xml version="1.0" encoding="utf-8"?>
<!-- Generator: Adobe Illustrator 23.0.1, SVG Export Plug-In . SVG Version: 6.00 Build 0)  -->
<svg version="1.1" id="Capa_1" xmlns="http://www.w3.org/2000/svg" xmlns:xlink="http://www.w3.org/1999/xlink" x="0px" y="0px"
	 viewBox="0 0 5.3 4.8" style="enable-background:new 0 0 5.3 4.8;" xml:space="preserve">
<style type="text/css">
	.st0{fill:#FFFFFF;}
</style>
<path class="st0" d="M0,0.2v4.4h5.3V4.3V0.2H0z M0.5,0.7h4.3v3.4H0.5V0.7z"/>
<g>
	<path class="st0" d="M0.8,3.5V1.4h1.5v0.4H1.2v0.5h1v0.4h-1v0.6h1.2v0.4H0.8z"/>
	<path class="st0" d="M2.8,3.5V1.4h0.9c0.2,0,0.4,0,0.5,0.1c0.1,0,0.2,0.1,0.2,0.2C4.4,1.8,4.5,1.9,4.5,2c0,0.2,0,0.3-0.1,0.4
		S4.1,2.6,3.9,2.6C4,2.6,4.1,2.7,4.1,2.8c0.1,0.1,0.1,0.2,0.2,0.3l0.3,0.4H4.1L3.8,3C3.7,2.9,3.6,2.8,3.6,2.7S3.5,2.7,3.5,2.7
		s-0.1,0-0.2,0H3.2v0.9H2.8z M3.2,2.3h0.3c0.2,0,0.3,0,0.4,0c0.1,0,0.1,0,0.1-0.1c0,0,0-0.1,0-0.2C4,2,4,1.9,4,1.9
		c0,0-0.1-0.1-0.2-0.1c0,0-0.1,0-0.3,0H3.2V2.3z"/>
</g>
</svg>
