<?xml version="1.0" encoding="utf-8"?>
<!-- Generator: Adobe Illustrator 21.1.0, SVG Export Plug-In . SVG Version: 6.00 Build 0)  -->
<svg version="1.1" id="Capa_1" xmlns="http://www.w3.org/2000/svg" xmlns:xlink="http://www.w3.org/1999/xlink" x="0px" y="0px"
	 viewBox="0 0 64.8 64.8" style="enable-background:new 0 0 64.8 64.8;" xml:space="preserve">
<style type="text/css">
	.st0{fill:#282828;}
</style>
<path class="st0" d="M55.6,13.4l-4.3-4.3c-1.2-1.2-2.9-1.9-4.6-1.9c-1.7,0-3.4,0.7-4.6,1.9L30.9,20.5c-2.5,2.5-2.5,6.7,0,9.2
	l0.4,0.4l-1.2,1.2l-0.4-0.4c-1.2-1.2-2.9-1.9-4.6-1.9s-3.4,0.7-4.6,1.9L9.2,42.2c-2.5,2.5-2.5,6.7,0,9.2l4.3,4.3
	c1.2,1.2,2.9,1.9,4.6,1.9s3.4-0.7,4.6-1.9L34,44.4c2.5-2.5,2.5-6.7,0-9.2l-0.4-0.4l1.2-1.2l0.4,0.4c1.2,1.2,2.9,1.9,4.6,1.9
	c1.7,0,3.4-0.7,4.6-1.9l11.3-11.3C58.1,20.1,58.1,16,55.6,13.4z M30.5,40.9L19.2,52.2c-0.6,0.6-1.8,0.6-2.4,0L12.6,48
	c-0.7-0.7-0.7-1.7,0-2.4l11.3-11.3c0.3-0.3,0.7-0.5,1.2-0.5s0.9,0.2,1.2,0.5l0.4,0.4l-2.2,2.2l3.4,3.4l2.2-2.2l0.4,0.4
	C31.2,39.2,31.2,40.3,30.5,40.9z M52.2,19.2L40.9,30.5c-0.6,0.6-1.8,0.6-2.4,0l-0.4-0.4l3.4-3.4L38,23.3l-3.4,3.4l-0.4-0.4
	c-0.7-0.7-0.7-1.7,0-2.4l11.3-11.3c0.3-0.3,0.7-0.5,1.2-0.5s0.9,0.2,1.2,0.5l4.3,4.3C52.9,17.5,52.9,18.6,52.2,19.2z"/>
</svg>
