<?xml version="1.0" encoding="utf-8"?>
<!-- Generator: Adobe Illustrator 23.0.1, SVG Export Plug-In . SVG Version: 6.00 Build 0)  -->
<svg version="1.1" id="圖層_1" xmlns="http://www.w3.org/2000/svg" xmlns:xlink="http://www.w3.org/1999/xlink" x="0px" y="0px"
	 viewBox="0 0 20 20" style="enable-background:new 0 0 20 20;" xml:space="preserve">
<style type="text/css">
	.st0{fill:#3D3D3D;}
</style>
<g>
	<path class="st0" d="M17.2,8.2C17.2,8.2,17.2,8.2,17.2,8.2c0-0.1-0.1-0.3-0.1-0.4c-0.3-1.1-1-2-1.9-2.5c-0.9-0.5-2.1-0.5-3,0.1
		c-0.1,0.1-0.3,0.2-0.4,0.3c-0.2,0.2-0.3,0.3-0.4,0.5c-0.3,0.5-0.2,1.1,0.3,1.6c0,0,0,0,0,0c-0.1,0-0.1,0-0.2,0.1
		c-0.2,0.1-0.5,0.3-0.7,0.5V2.7c0-0.2-0.1-0.3-0.3-0.3c-0.2,0-0.3,0.1-0.3,0.3v5.9c0,0,0,0,0,0v0.1c0,0,0,0,0,0v8.6
		c0,0.1,0.1,0.2,0.2,0.3c0,0,0.1,0,0.1,0c0.2,0,0.3-0.1,0.3-0.3V9.4c0,0,0.1-0.1,0.1-0.1C11,9.1,11.1,9,11.2,8.9c0,0,0,0,0,0
		c0,0,0.1-0.1,0.1-0.1c0.1-0.1,0.3-0.2,0.4-0.3c0.1,0,0.2-0.1,0.2-0.1c0,0,0.1,0,0.1,0c0,0,0,0.1,0,0.1c0,0.2,0,0.3-0.1,0.5
		c0,0,0,0,0,0c-0.1,0.1-0.1,0.2-0.2,0.4C11,10,10.9,11,11.2,11.8c0.1,0.3,0.3,0.6,0.5,0.9c0.2,0.2,0.3,0.3,0.5,0.5
		c0.1,0.1,0.2,0.1,0.3,0.2c1.5,0.7,3.2,0,4.1-1.4C17.4,10.6,17.4,9.2,17.2,8.2z"/>
	<path class="st0" d="M9.9,8.7C9.9,8.7,9.9,8.7,9.9,8.7l0-6c0-0.2-0.1-0.3-0.3-0.3c-0.2,0-0.3,0.1-0.3,0.3v5.6
		C9.1,8.1,8.9,7.9,8.7,7.8c-0.1,0-0.2-0.1-0.3-0.1c0.5-0.4,0.6-1,0.3-1.6C8.5,5.9,8.4,5.8,8.2,5.6C8.1,5.5,8,5.4,7.9,5.3
		C7,4.7,5.8,4.8,4.9,5.2c-1,0.5-1.6,1.4-1.9,2.5C2.6,8.7,2.5,10,3,11.2c0,0,0,0,0,0c0,0.1,0.1,0.1,0.1,0.2c0,0,0,0,0,0
		c0,0.1,0.1,0.1,0.1,0.2c0,0,0,0,0,0c0,0.1,0.1,0.1,0.1,0.2c0.3,0.6,0.8,1,1.4,1.3c0.9,0.5,2.1,0.6,3,0C8,13,8.2,12.9,8.3,12.7
		c0.2-0.3,0.4-0.6,0.5-0.9C9.1,11,9,10,8.3,9.3C8.2,9.2,8.2,9,8.1,8.9c0,0,0,0,0,0C8,8.8,8,8.7,8,8.6c0,0,0,0,0-0.1c0,0,0,0,0,0
		c0,0,0-0.1,0-0.1c0,0,0-0.1,0-0.1c0.1,0,0.2,0,0.3,0c0.1,0,0.2,0.1,0.2,0.1c0.1,0.1,0.3,0.2,0.4,0.3c0,0,0.1,0.1,0.1,0.1
		c0,0,0,0,0,0C9.1,9,9.2,9.1,9.3,9.3c0,0,0,0,0.1,0.1v7.9c0,0.1,0.1,0.2,0.2,0.3c0,0,0.1,0,0.1,0c0.2,0,0.3-0.1,0.3-0.3L9.9,8.7
		C9.9,8.7,9.9,8.7,9.9,8.7L9.9,8.7z M8.1,8.3C8.1,8.3,8.1,8.3,8.1,8.3C8.1,8.3,8.1,8.3,8.1,8.3z"/>
</g>
</svg>
