<?xml version="1.0" encoding="utf-8"?>
<!-- Generator: Adobe Illustrator 21.1.0, SVG Export Plug-In . SVG Version: 6.00 Build 0)  -->
<svg version="1.1" id="Capa_1" xmlns="http://www.w3.org/2000/svg" xmlns:xlink="http://www.w3.org/1999/xlink" x="0px" y="0px"
	 viewBox="0 0 64.8 64.8" style="enable-background:new 0 0 64.8 64.8;" xml:space="preserve">
<style type="text/css">
	.st0{fill:#282828;}
</style>
<g>
	<g>
		<path class="st0" d="M30.9,29.8l3.3-3.3l0,0c-0.6-0.6-0.6-1.7,0-2.3l11-11c0.3-0.3,0.7-0.5,1.2-0.5c0.4,0,0.9,0.2,1.2,0.5l4.2,4.2
			c0.6,0.6,0.6,1.7,0,2.3l-11,11c-0.6,0.6-1.7,0.6-2.3,0l-0.1-0.1L35,33.8l0.1,0.1c1.2,1.2,2.8,1.9,4.5,1.9s3.3-0.7,4.5-1.9l11-11
			c2.5-2.5,2.5-6.5,0-9l-4.2-4.2c-1.2-1.2-2.8-1.9-4.5-1.9s-3.3,0.7-4.5,1.9l-11,11C28.4,23.2,28.4,27.2,30.9,29.8L30.9,29.8z
			 M33.8,34.9l-3.3,3.3l0.1,0.1c0.6,0.6,0.6,1.7,0,2.3l-11,11c-0.6,0.6-1.7,0.6-2.3,0l-4.3-4c-0.6-0.6-0.6-1.7,0-2.3l11-11
			c0.3-0.3,0.7-0.5,1.2-0.5c0.4,0,0.9,0.2,1.2,0.5l0,0l3.3-3.3l0,0c-1.2-1.2-2.8-1.9-4.5-1.9s-3.3,0.7-4.5,1.9l-11,11
			c-2.5,2.5-2.5,6.5,0,9l4.2,4.2c1.2,1.2,2.8,1.9,4.5,1.9s3.3-0.7,4.5-1.9l11-11c2.5-2.5,2.5-6.5,0-9L33.8,34.9z M26,21.3
			c1,0,1.8-0.8,1.8-1.8v-8.3c0-1-0.8-1.8-1.8-1.8s-1.8,0.8-1.8,1.8v8.3C24.2,20.5,25,21.3,26,21.3z M19.8,22.9
			c0.7,0.7,1.9,0.7,2.6,0s0.7-1.9,0-2.6l-5.9-5.9c-0.7-0.7-1.9-0.7-2.6,0c-0.7,0.7-0.7,1.9,0,2.6L19.8,22.9z M10.5,28.2h8.3
			c1,0,1.8-0.8,1.8-1.8s-0.8-1.8-1.8-1.8h-8.3c-1,0-1.8,0.8-1.8,1.8C8.6,27.4,9.5,28.2,10.5,28.2z M38.6,43.4c-1,0-1.8,0.8-1.8,1.8
			v8.3c0,1,0.8,1.8,1.8,1.8s1.8-0.8,1.8-1.8v-8.3C40.4,44.2,39.6,43.4,38.6,43.4z M44.7,41.8c-0.7-0.7-1.9-0.7-2.6,0
			c-0.7,0.7-0.7,1.9,0,2.6l5.9,5.9c0.7,0.7,1.9,0.7,2.6,0c0.7-0.7,0.7-1.9,0-2.6L44.7,41.8z M54.1,36.5h-8.3c-1,0-1.8,0.8-1.8,1.8
			s0.8,1.8,1.8,1.8h8.3c1,0,1.8-0.8,1.8-1.8C55.9,37.3,55.1,36.5,54.1,36.5z"/>
	</g>
</g>
</svg>
