<?xml version="1.0" encoding="utf-8"?>
<!-- Generator: Adobe Illustrator 23.0.1, SVG Export Plug-In . SVG Version: 6.00 Build 0)  -->
<svg version="1.1" id="圖層_1" xmlns="http://www.w3.org/2000/svg" xmlns:xlink="http://www.w3.org/1999/xlink" x="0px" y="0px"
	 viewBox="0 0 20 20" style="enable-background:new 0 0 20 20;" xml:space="preserve">
<style type="text/css">
	.st0{fill:#43C4F3;}
</style>
<path class="st0" d="M2.8,7.6V14c0,0.6,0.5,1.1,1.1,1.1h0.3V6.5H3.9C3.3,6.5,2.8,7,2.8,7.6z"/>
<path class="st0" d="M16.1,6.5h-0.4v8.7h0.4c0.6,0,1.1-0.5,1.1-1.1V7.6C17.2,7,16.7,6.5,16.1,6.5z"/>
<path class="st0" d="M14.1,6.5c0-0.6-0.2-1-0.5-1.3s-0.7-0.3-0.9-0.3c-0.1,0-0.1,0-0.2,0c-0.3,0-3.3,0-4.6,0c-0.4,0-0.7,0.1-1,0.3
	C6.5,5.4,6.3,5.8,6.2,6.1C6.1,6.2,6.1,6.4,6.1,6.5H5v8.7h9.9V6.5H14.1z M7.2,6.2C7.2,6.1,7.3,6,7.4,6c0.1-0.1,0.2-0.1,0.5-0.1
	c1.3,0,4.6,0,4.6,0l0,0l0,0l0,0l0,0c0.1,0,0.2,0,0.3,0.1c0.2,0,0.3,0.2,0.4,0.5H7.1C7.1,6.4,7.1,6.3,7.2,6.2z M12.3,11.7h-1.4v1.4
	H9.1v-1.4H7.6V10H9V8.6h1.7V10h1.4v1.7H12.3z"/>
</svg>
