<?xml version="1.0" encoding="utf-8"?>
<!-- Generator: Adobe Illustrator 23.0.1, SVG Export Plug-In . SVG Version: 6.00 Build 0)  -->
<svg version="1.1" id="圖層_1" xmlns="http://www.w3.org/2000/svg" xmlns:xlink="http://www.w3.org/1999/xlink" x="0px" y="0px"
	 viewBox="0 0 20 20" style="enable-background:new 0 0 20 20;" xml:space="preserve">
<style type="text/css">
	.st0{fill:#43C4F3;}
</style>
<path class="st0" d="M16,4.3h-2.9c0,0,0,0,0,0c0-1.6-1.3-2.8-2.8-2.8S7.5,2.8,7.5,4.3c0,0,0,0,0,0H4.6C4.2,4.3,3.9,4.6,3.9,5v11.5
	c0,0.3,0.3,0.6,0.6,0.6H16c0.3,0,0.6-0.4,0.6-0.6V5C16.7,4.6,16.3,4.3,16,4.3z M10.3,2.4c1,0,1.9,0.8,1.9,1.9c0,1-0.8,1.9-1.9,1.9
	S8.4,5.3,8.4,4.3C8.4,3.3,9.3,2.4,10.3,2.4z M12.3,14.7H6.6V13h5.8V14.7z M14,12.1H6.6v-1.7H14V12.1z M14,9.5H6.6V7.8H14V9.5z"/>
</svg>
