<?xml version="1.0" encoding="utf-8"?>
<!-- Generator: Adobe Illustrator 23.0.1, SVG Export Plug-In . SVG Version: 6.00 Build 0)  -->
<svg version="1.1" id="圖層_1" xmlns="http://www.w3.org/2000/svg" xmlns:xlink="http://www.w3.org/1999/xlink" x="0px" y="0px"
	 viewBox="0 0 20 20" style="enable-background:new 0 0 20 20;" xml:space="preserve">
<style type="text/css">
	.st0{fill:#3D3D3D;}
</style>
<g>
	<path class="st0" d="M-11.7,8.8c0-0.2-0.1-0.4-0.2-0.6l-6.7-6.7c-0.3-0.3-0.8-0.3-1.1,0s-0.3,0.8,0,1.1l6.2,6.2l-6.2,6.2
		c-0.3,0.3-0.3,0.8,0,1.1c0.3,0.3,0.8,0.3,1.1,0l6.7-6.7C-11.8,9.3-11.7,9-11.7,8.8z"/>
	<path class="st0" d="M-7,8.2l-6.7-6.7c-0.3-0.3-0.8-0.3-1.1,0s-0.3,0.8,0,1.1l6.2,6.2l-6.2,6.2c-0.3,0.3-0.3,0.8,0,1.1v0
		c0.3,0.3,0.8,0.3,1.1,0L-7,9.4C-6.8,9.2-6.8,9-6.8,8.8C-6.8,8.6-6.8,8.4-7,8.2z"/>
</g>
<text transform="matrix(0.8984 0 0 1 -16.3938 -4.2308)" class="st0" style="font-family:'ArialMT'; font-size:9.4535px;">EPO</text>
<g>
	<path class="st0" d="M10.9-15.4c3.5,0,6.4,2.9,6.4,6.4s-2.9,6.4-6.4,6.4S4.5-5.4,4.5-9S7.4-15.4,10.9-15.4 M10.9-16.4
		C6.8-16.4,3.5-13,3.5-9s3.3,7.4,7.4,7.4s7.4-3.3,7.4-7.4S15-16.4,10.9-16.4L10.9-16.4z"/>
</g>
<path class="st0" d="M9-15.5c0,0-1.2,4.3-5,6C4.1-9.5,4.3-14.4,9-15.5z"/>
<path class="st0" d="M8.6-14.3c0,0,3.7,4.6,8.9,4.8c0,0,0-4.7-3.9-5.7c0,0-3.6-1.1-5.4,0L8.6-14.3z"/>
<circle class="st0" cx="8.2" cy="-8.2" r="1"/>
<circle class="st0" cx="12.8" cy="-8.2" r="1"/>
<path class="st0" d="M31.7-10.6L31.7-10.6C31.7-10.6,31.7-10.6,31.7-10.6c-0.1-0.1-0.2-0.2-0.3-0.3c-0.7-0.7-2.6-2.8-2.8-6.4
	c0-0.3-0.3-0.6-0.6-0.6c-0.3,0-0.6,0.3-0.6,0.6c0,0-0.1,3.8-3,6.6c0,0,0,0,0,0c0,0,0,0-0.1,0.1h0C23.5-9.7,23-8.4,23-7
	c0,2.8,2.3,5.1,5.1,5.1c2.8,0,5.1-2.3,5.1-5.1C33.2-8.4,32.6-9.7,31.7-10.6z M25.6-5.1c-0.6,0-1.2-0.7-1.2-1.7
	c0-0.9,0.5-1.7,1.2-1.7c0.6,0,1.2,0.7,1.2,1.7C26.7-5.9,26.2-5.1,25.6-5.1z"/>
<g>
	<path class="st0" d="M10.1,2.9c-3.8,0-7,3.1-7,7s3.1,7,7,7s7-3.1,7-7S14,2.9,10.1,2.9z M10.1,15.9C6.8,15.9,4,13.2,4,9.8
		s2.7-6.1,6.1-6.1s6.1,2.7,6.1,6.1S13.5,15.9,10.1,15.9z M12.3,10.1c0.2,0.3,0.2,0.6,0.2,1c0,0.6-0.2,1.1-0.5,1.4
		c-0.3,0.4-0.8,0.6-1.5,0.7v1H9.7v-1c-1.1-0.1-1.7-0.7-2-1.9L9,11c0.1,0.7,0.5,1.1,1.2,1.1c0.3,0,0.5-0.1,0.7-0.2
		c0.1-0.2,0.2-0.3,0.2-0.6c0-0.2-0.1-0.4-0.2-0.5c-0.1-0.1-0.5-0.3-1-0.4C9.4,10.2,9.1,10,8.8,9.9C8.6,9.7,8.4,9.5,8.2,9.2
		C8,8.9,8,8.6,8,8.2c0-0.5,0.1-0.9,0.4-1.3c0.3-0.4,0.7-0.6,1.3-0.7V5.5h0.8v0.8c0.9,0.1,1.5,0.6,1.8,1.6l-1.1,0.5
		c-0.2-0.6-0.6-1-1-1c-0.2,0-0.4,0.1-0.6,0.2C9.5,7.7,9.4,7.8,9.4,8c0,0.2,0.1,0.4,0.2,0.5c0.1,0.1,0.4,0.2,0.9,0.4
		c0.5,0.2,0.9,0.3,1.2,0.5C11.9,9.6,12.1,9.8,12.3,10.1z"/>
</g>
</svg>
