<?xml version="1.0" encoding="utf-8"?>
<!-- Generator: Adobe Illustrator 23.0.1, SVG Export Plug-In . SVG Version: 6.00 Build 0)  -->
<svg version="1.1" id="圖層_1" xmlns="http://www.w3.org/2000/svg" xmlns:xlink="http://www.w3.org/1999/xlink" x="0px" y="0px"
	 viewBox="0 0 20 20" style="enable-background:new 0 0 20 20;" xml:space="preserve">
<style type="text/css">
	.st0{fill:#3D3D3D;}
</style>
<g>
	<path class="st0" d="M10.3,11.6c0.1,0,0.3-0.1,0.4-0.1l4.9-4.9c0.2-0.2,0.2-0.6,0-0.8c-0.2-0.2-0.6-0.2-0.8,0l-4.5,4.5L5.8,5.8
		C5.6,5.5,5.2,5.5,5,5.8C4.8,6,4.8,6.3,5,6.6l4.9,4.9C10,11.6,10.1,11.6,10.3,11.6z"/>
	<path class="st0" d="M10.8,15l4.9-4.9c0.2-0.2,0.2-0.6,0-0.8c-0.2-0.2-0.6-0.2-0.8,0l-4.5,4.5L5.8,9.3C5.6,9.1,5.2,9.1,5,9.3l0,0
		c-0.2,0.2-0.2,0.6,0,0.8L9.9,15c0.1,0.1,0.3,0.1,0.4,0.1C10.5,15.2,10.6,15.2,10.8,15z"/>
</g>
</svg>
