<?xml version="1.0" encoding="utf-8"?>
<!-- Generator: Adobe Illustrator 23.0.1, SVG Export Plug-In . SVG Version: 6.00 Build 0)  -->
<svg version="1.1" id="圖層_1" xmlns="http://www.w3.org/2000/svg" xmlns:xlink="http://www.w3.org/1999/xlink" x="0px" y="0px"
	 viewBox="0 0 20 20" style="enable-background:new 0 0 20 20;" xml:space="preserve">
<style type="text/css">
	.st0{fill:#3D3D3D;}
</style>
<g>
	<path class="st0" d="M-11.7,8.8c0-0.2-0.1-0.4-0.2-0.6l-6.7-6.7c-0.3-0.3-0.8-0.3-1.1,0s-0.3,0.8,0,1.1l6.2,6.2l-6.2,6.2
		c-0.3,0.3-0.3,0.8,0,1.1c0.3,0.3,0.8,0.3,1.1,0l6.7-6.7C-11.8,9.3-11.7,9-11.7,8.8z"/>
	<path class="st0" d="M-7,8.2l-6.7-6.7c-0.3-0.3-0.8-0.3-1.1,0s-0.3,0.8,0,1.1l6.2,6.2l-6.2,6.2c-0.3,0.3-0.3,0.8,0,1.1v0
		c0.3,0.3,0.8,0.3,1.1,0L-7,9.4C-6.8,9.2-6.8,9-6.8,8.8C-6.8,8.6-6.8,8.4-7,8.2z"/>
</g>
<text transform="matrix(0.8984 0 0 1 -16.3938 -4.2308)" class="st0" style="font-family:'ArialMT'; font-size:9.4535px;">EPO</text>
<g>
	<path class="st0" d="M10.9-15.4c3.5,0,6.4,2.9,6.4,6.4s-2.9,6.4-6.4,6.4S4.5-5.4,4.5-9S7.4-15.4,10.9-15.4 M10.9-16.4
		C6.8-16.4,3.5-13,3.5-9s3.3,7.4,7.4,7.4s7.4-3.3,7.4-7.4S15-16.4,10.9-16.4L10.9-16.4z"/>
</g>
<path class="st0" d="M9-15.5c0,0-1.2,4.3-5,6C4.1-9.5,4.3-14.4,9-15.5z"/>
<path class="st0" d="M8.6-14.3c0,0,3.7,4.6,8.9,4.8c0,0,0-4.7-3.9-5.7c0,0-3.6-1.1-5.4,0L8.6-14.3z"/>
<circle class="st0" cx="8.2" cy="-8.2" r="1"/>
<circle class="st0" cx="12.8" cy="-8.2" r="1"/>
<path class="st0" d="M13.7,9.4L13.7,9.4C13.7,9.4,13.7,9.4,13.7,9.4c-0.1-0.1-0.2-0.2-0.3-0.3c-0.7-0.7-2.6-2.8-2.8-6.4
	c0-0.3-0.3-0.6-0.6-0.6c-0.3,0-0.6,0.3-0.6,0.6c0,0-0.1,3.8-3,6.6c0,0,0,0,0,0c0,0,0,0-0.1,0.1h0c-0.9,0.9-1.4,2.2-1.4,3.5
	c0,2.8,2.3,5.1,5.1,5.1c2.8,0,5.1-2.3,5.1-5.1C15.1,11.6,14.6,10.3,13.7,9.4z M7.5,14.9c-0.6,0-1.2-0.7-1.2-1.7
	c0-0.9,0.5-1.7,1.2-1.7c0.6,0,1.2,0.7,1.2,1.7C8.7,14.1,8.2,14.9,7.5,14.9z"/>
</svg>
