<?xml version="1.0" encoding="utf-8"?>
<!-- Generator: Adobe Illustrator 23.0.1, SVG Export Plug-In . SVG Version: 6.00 Build 0)  -->
<svg version="1.1" id="圖層_1" xmlns="http://www.w3.org/2000/svg" xmlns:xlink="http://www.w3.org/1999/xlink" x="0px" y="0px"
	 viewBox="0 0 20 20" style="enable-background:new 0 0 20 20;" xml:space="preserve">
<style type="text/css">
	.st0{fill-rule:evenodd;clip-rule:evenodd;fill:#3D3D3D;}
</style>
<path class="st0" d="M15.4,5.2L15.4,5.2c-0.8-0.8-1.7-1.1-2.7-1.1c-1,0-2,0.4-2.7,1.1L5.1,10l0,0C4.4,10.8,4,11.8,4,12.8
	c0,1,0.4,2,1.1,2.7c0.8,0.8,1.7,1.1,2.7,1.1c1,0,2-0.4,2.7-1.1l4.8-4.8C16.1,9.9,16.5,9,16.5,8C16.5,7,16.1,6,15.4,5.2z M6.5,15
	c-0.2,0.2-0.5,0.2-0.7,0c-0.7-0.7-1-1.5-1-2.2C4.7,12,5,11.4,5.3,11c0.3-0.4,0.5-0.6,0.5-0.6c0.2-0.2,0.5-0.2,0.7,0
	c0.2,0.2,0.2,0.5,0,0.7l0,0l0,0l0,0l-0.1,0.1c-0.1,0.1-0.2,0.2-0.3,0.3c-0.2,0.3-0.4,0.7-0.4,1.1c0,0.4,0.2,0.9,0.7,1.5
	C6.7,14.4,6.7,14.8,6.5,15z M14.7,10l-2.4,2.4c-0.1-3.7-2.7-4.2-4-4.1l2.3-2.3l0,0c0.6-0.6,1.3-0.8,2-0.8c0.7,0,1.5,0.3,2,0.8
	c0.6,0.6,0.8,1.3,0.8,2C15.5,8.7,15.2,9.4,14.7,10z"/>
</svg>
