<?xml version="1.0" encoding="utf-8"?>
<!-- Generator: Adobe Illustrator 23.0.1, SVG Export Plug-In . SVG Version: 6.00 Build 0)  -->
<svg version="1.1" id="圖層_1" xmlns="http://www.w3.org/2000/svg" xmlns:xlink="http://www.w3.org/1999/xlink" x="0px" y="0px"
	 viewBox="0 0 20 20" style="enable-background:new 0 0 20 20;" xml:space="preserve">
<style type="text/css">
	.st0{fill:#3D3D3D;}
</style>
<g>
	<path class="st0" d="M-11.7,8.8c0-0.2-0.1-0.4-0.2-0.6l-6.7-6.7c-0.3-0.3-0.8-0.3-1.1,0s-0.3,0.8,0,1.1l6.2,6.2l-6.2,6.2
		c-0.3,0.3-0.3,0.8,0,1.1c0.3,0.3,0.8,0.3,1.1,0l6.7-6.7C-11.8,9.3-11.7,9-11.7,8.8z"/>
	<path class="st0" d="M-7,8.2l-6.7-6.7c-0.3-0.3-0.8-0.3-1.1,0s-0.3,0.8,0,1.1l6.2,6.2l-6.2,6.2c-0.3,0.3-0.3,0.8,0,1.1v0
		c0.3,0.3,0.8,0.3,1.1,0L-7,9.4C-6.8,9.2-6.8,9-6.8,8.8C-6.8,8.6-6.8,8.4-7,8.2z"/>
</g>
<text transform="matrix(0.8984 0 0 1 -16.3938 -4.2308)" class="st0" style="font-family:'ArialMT'; font-size:9.4535px;">EPO</text>
<g>
	<path class="st0" d="M10,3.6c3.5,0,6.4,2.9,6.4,6.4s-2.9,6.4-6.4,6.4S3.6,13.5,3.6,10S6.5,3.6,10,3.6 M10,2.6
		c-4.1,0-7.4,3.3-7.4,7.4s3.3,7.4,7.4,7.4s7.4-3.3,7.4-7.4S14.1,2.6,10,2.6L10,2.6z"/>
</g>
<path class="st0" d="M8.1,3.5c0,0-1.2,4.3-5,6C3.2,9.5,3.4,4.6,8.1,3.5z"/>
<path class="st0" d="M7.7,4.7c0,0,3.7,4.6,8.9,4.8c0,0,0-4.7-3.9-5.7c0,0-3.6-1.1-5.4,0L7.7,4.7z"/>
<circle class="st0" cx="7.3" cy="10.8" r="1"/>
<circle class="st0" cx="11.9" cy="10.8" r="1"/>
</svg>
