<?xml version="1.0" encoding="utf-8"?>
<!-- Generator: Adobe Illustrator 23.0.1, SVG Export Plug-In . SVG Version: 6.00 Build 0)  -->
<svg version="1.1" id="圖層_1" xmlns="http://www.w3.org/2000/svg" xmlns:xlink="http://www.w3.org/1999/xlink" x="0px" y="0px"
	 viewBox="0 0 20 20" style="enable-background:new 0 0 20 20;" xml:space="preserve">
<style type="text/css">
	.st0{fill:#3D3D3D;}
</style>
<g>
	<circle class="st0" cx="7.5" cy="3.2" r="1.6"/>
	<path class="st0" d="M14.7,9.1H11c-0.2,0-0.4-0.1-0.4-0.3l-0.4-1.6c-0.1-0.3,0.1-0.5,0.4-0.6l1.6-0.1c0.1,0,0.2-0.1,0.3-0.2
		l1.8-2.2c0.2-0.2,0.1-0.5-0.1-0.6l-0.1-0.1c-0.2-0.1-0.4-0.1-0.6,0L12,5.1c-0.1,0.1-0.2,0.1-0.3,0.1h-3c-1.1,0-2.3,0.2-3.4,0.5
		c0,0,0,0,0,0l-1,0.4C4.1,6.2,4,6.3,4,6.4L2.5,9.8c-0.1,0.2,0,0.5,0.2,0.6l0.2,0.1c0.2,0.1,0.5,0,0.6-0.2l1.4-2.7
		C5,7.4,5.1,7.3,5.3,7.3l0.6-0.1c0.2,0,0.4,0.1,0.5,0.3l1.5,3.6c0,0,0,0.1,0.1,0.1l3.4,3.6c0,0,0.1,0.1,0.1,0.1l1.4,3.5
		c0.1,0.2,0.3,0.3,0.5,0.2l0.2-0.1c0.2-0.1,0.4-0.3,0.3-0.5l-1.2-3.8c0-0.1,0-0.1-0.1-0.1l-2.2-2.7c-0.1-0.2-0.1-0.4,0-0.6l0,0
		c0.1-0.1,0.2-0.1,0.3-0.1l3.1-0.1c0.2,0,0.3,0.1,0.4,0.3l1.3,3.3c0.1,0.2,0.3,0.3,0.5,0.3l0.1,0c0.2-0.1,0.4-0.3,0.3-0.6l-1.4-4.3
		C15.1,9.2,14.9,9.1,14.7,9.1z"/>
	<path class="st0" d="M14,18.1c0,0,1.5-0.3,1.9-1.1c0,0,0.2-0.4,0.3,0.2C16.3,17.7,15.2,18,14,18.1z"/>
	<path class="st0" d="M14,18.4c0,0,2.1-0.2,2.7-1.1c0,0,0.3-0.5,0.4,0.2C17.2,18.1,15.6,18.3,14,18.4z"/>
</g>
</svg>
