<?xml version="1.0" encoding="utf-8"?>
<!-- Generator: Adobe Illustrator 22.1.0, SVG Export Plug-In . SVG Version: 6.00 Build 0)  -->
<svg version="1.1" id="圖層_1" xmlns="http://www.w3.org/2000/svg" xmlns:xlink="http://www.w3.org/1999/xlink" x="0px" y="0px"
	 viewBox="0 0 50 50" style="enable-background:new 0 0 50 50;" xml:space="preserve">
<style type="text/css">
	.st0{fill:#FF9797;}
	.st1{fill:#FFFFFF;}
</style>
<polygon class="st0" points="0,0 0,49 49,0 "/>
<g>
	<g>
		<path class="st1" d="M19.8,10.3c0-4.6-3.7-8.3-8.3-8.3s-8.3,3.7-8.3,8.3c0,3.9,2.7,7.2,6.4,8v1.8H8.1c-1,0-1.9,0.8-1.9,1.9
			s0.8,1.9,1.9,1.9h1.6v4.3c0,1,0.8,1.9,1.9,1.9s1.9-0.8,1.9-1.9v-4.3H15c1,0,1.9-0.8,1.9-1.9S16,20.1,15,20.1h-1.6v-1.8
			C17,17.5,19.8,14.2,19.8,10.3z M7,10.3c0-2.5,2-4.5,4.5-4.5s4.5,2,4.5,4.5s-2,4.5-4.5,4.5S7,12.8,7,10.3z"/>
	</g>
</g>
</svg>
