<?xml version="1.0" encoding="utf-8"?>
<!-- Generator: Adobe Illustrator 21.1.0, SVG Export Plug-In . SVG Version: 6.00 Build 0)  -->
<svg version="1.1" xmlns="http://www.w3.org/2000/svg" xmlns:xlink="http://www.w3.org/1999/xlink" x="0px" y="0px"
	 viewBox="0 0 106.2 161" style="enable-background:new 0 0 106.2 161;" xml:space="preserve">
<style type="text/css">
	.st0{display:none;}
	.st1{display:inline;}
	.st2{fill:#FFFFFF;}
	.st3{fill:none;}
	.st4{fill:#272828;}
	.st5{opacity:0.37;}
	.st6{clip-path:url(#SVGID_2_);}
	.st7{fill:url(#SVGID_3_);}
	.st8{opacity:0.5;}
	.st9{opacity:0.5;fill:url(#SVGID_4_);}
	.st10{opacity:0.5;fill:url(#SVGID_5_);}
	.st11{opacity:0.5;fill:url(#SVGID_6_);}
	.st12{fill:#F8EDE9;}
</style>
<g id="圖層_2" class="st0">
	<rect x="-1.6" y="-10.8" class="st1" width="120.5" height="173.9"/>
</g>
<g id="圖層_3">
	<circle class="st2" cx="84.5" cy="21.2" r="20"/>
	<path class="st3" d="M72.5,9.2h24v24h-24V9.2z"/>
	<path class="st4" d="M91.4,22.1c0-0.3,0.1-0.6,0.1-0.9s0-0.6-0.1-0.9l2-1.5c0.2-0.1,0.2-0.4,0.1-0.6L91.6,15
		c-0.1-0.2-0.4-0.3-0.6-0.2l-2.3,0.9c-0.5-0.4-1-0.7-1.6-0.9l-0.4-2.5c0-0.2-0.2-0.4-0.5-0.4h-3.7c-0.2,0-0.4,0.2-0.5,0.4l-0.4,2.5
		c-0.6,0.2-1.1,0.5-1.6,0.9L78,14.8c-0.2-0.1-0.5,0-0.6,0.2l-1.9,3.2c-0.1,0.2-0.1,0.5,0.1,0.6l2,1.5c0,0.3-0.1,0.6-0.1,0.9
		s0,0.6,0.1,0.9l-2,1.5c-0.2,0.1-0.2,0.4-0.1,0.6l1.9,3.2c0.1,0.2,0.4,0.3,0.6,0.2l2.3-0.9c0.5,0.4,1,0.7,1.6,0.9l0.4,2.5
		c0,0.2,0.2,0.4,0.5,0.4h3.7c0.2,0,0.4-0.2,0.5-0.4l0.4-2.5c0.6-0.2,1.1-0.5,1.6-0.9l2.3,0.9c0.2,0.1,0.5,0,0.6-0.2l1.9-3.2
		c0.1-0.2,0.1-0.5-0.1-0.6L91.4,22.1z M84.5,24.5c-1.8,0-3.2-1.5-3.2-3.2c0-1.8,1.5-3.2,3.2-3.2c1.8,0,3.2,1.5,3.2,3.2
		C87.7,23,86.3,24.5,84.5,24.5z"/>
	<g class="st5">
		<defs>
			<path id="SVGID_1_" class="st5" d="M72.1,21.2c0,0,7,0.1,1.7,17l-3.6-2.4l-2.3-3.9L72.1,21.2z"/>
		</defs>
		<use xlink:href="#SVGID_1_"  style="overflow:visible;"/>
		<clipPath id="SVGID_2_">
			<use xlink:href="#SVGID_1_"  style="overflow:visible;"/>
		</clipPath>
		<ellipse class="st6" cx="84.1" cy="21.2" rx="20" ry="16.9"/>
	</g>
</g>
<g id="Layer_1">
	<linearGradient id="SVGID_3_" gradientUnits="userSpaceOnUse" x1="28.2833" y1="165.0055" x2="65.7248" y2="19.6544">
		<stop  offset="0.1405" style="stop-color:#FFFFFF;stop-opacity:0"/>
		<stop  offset="0.2615" style="stop-color:#FEF7F2;stop-opacity:0.1646"/>
		<stop  offset="0.6594" style="stop-color:#FBDBC8;stop-opacity:0.706"/>
		<stop  offset="0.8676" style="stop-color:#FAD0B8;stop-opacity:0.9892"/>
		<stop  offset="1" style="stop-color:#FAD0B8"/>
	</linearGradient>
	<path class="st7" d="M71.2,73.7c0,0-0.4-0.5-1-0.7c-0.6-0.2-1.1-0.2-1.1-0.2s0-0.6-0.2-1.4c-0.4-1-1.1-2.5-1.4-4.7
		c-0.2-1.6-0.4-3.5-0.5-5.6c-0.1-2.4-0.4-5.2,0.1-7.7c0.6-3.4,1.7-6,2.9-9.3c0.9-2.4,2.1-5.5,2.8-7.8c1.4-4.6,2.6-8.8,2.3-11.6
		c-0.2-1.9-1.3-3-2.5-3.3c-4.1-1.2-5.5,3.8-7.8,8.2c-1.3,2.4-3.1,4.8-4,6.7c-1.1,2.2-1.5,3.4-1.5,3.4s-2.4-2.7-4.4-4.2
		c-1-0.8-2-1.9-2.7-2.3c-1-0.5-3.7-0.5-5,0.9c-2.4,2.7-3.5,8-3.5,8s-2.2-0.2-3.6,1.5c-1.5,1.8-1.9,2.8-3.3,6.5c0,0-2.2-1.3-4.2,0.7
		c-1.6,1.7-2.6,4.8-3.8,8.3c-0.8,2.4-2.4,3.5-2.4,7.2c0,4.2-0.4,9.2-0.7,13.9c-0.1,3.1,0.1,6.2-0.4,8.8
		c-0.6,2.9-21.6,51.5-24.8,57.4c-0.5,0.9-0.7,3.2,0.5,5c5.2,7.4,25,17.3,31.7,7.2c1.6-2.4,24.2-55.2,25.8-56.8
		c2.6-2.6,6.3-2.6,9.5-5.5c5.6-5.1,11.6-9.1,13.1-12.2c0.3-0.6,0.7-2.9,1.3-5.4c0.4-1.7,1.4-3.3,1.7-4.7c0.9-4.1,1.9-5.1,2-7.1
		c0-1.5-1.1-4-0.8-6.2c0.1-0.9,0.7-2.7,0.9-4c0.3-2.2-0.3-4.2-2.1-4.5c-1.4-0.2-2.8,0.2-4.4,1.8c-2,1.9-3.8,4.7-4.6,6.9
		c-0.8,2-0.2,3.9-0.2,3.9s-0.6,0.5-1,1.9c-0.2,0.5-0.4,1.6-0.6,2.2c-0.5,1.3-0.9,2.3-1.1,3.1c-0.2,0.7,0,1,0,1L71.2,73.7z"/>
	<g id="Shadows_1_" class="st8">
		
			<linearGradient id="SVGID_4_" gradientUnits="userSpaceOnUse" x1="82.0842" y1="36.6154" x2="82.0842" y2="46.0571" gradientTransform="matrix(-1 0 0 1 137.9449 0)">
			<stop  offset="0" style="stop-color:#000000;stop-opacity:0"/>
			<stop  offset="1" style="stop-color:#000000"/>
		</linearGradient>
		<path class="st9" d="M54.7,51.1c-0.1,0.2-1.3-0.3-1.4-1.7c-0.1-2,0.4-6.4,0.1-7.9c-0.4-2.2-1.3-4.8-0.7-5.2c0.5,1.4,2.2,1.9,3,1.9
			c1.9,0,3.4,1.5,3.4,1.5s-0.3,0.7-0.9,2.7C57.7,44.4,55.1,50.3,54.7,51.1z"/>
		
			<linearGradient id="SVGID_5_" gradientUnits="userSpaceOnUse" x1="95.7132" y1="36.6153" x2="95.7132" y2="46.0572" gradientTransform="matrix(-1 0 0 1 137.9449 0)">
			<stop  offset="0" style="stop-color:#000000;stop-opacity:0"/>
			<stop  offset="1" style="stop-color:#000000"/>
		</linearGradient>
		<path class="st10" d="M41,55.2c0,0,0.8-1,1.3-3.4c0.5-2.5,1.3-9.5,1.3-9.5s-0.6,0.9-1.1,2.8c-0.4,1.6,0,1.3-0.5,6.3
			C41.8,52.3,41.1,53.9,41,55.2z"/>
		
			<linearGradient id="SVGID_6_" gradientUnits="userSpaceOnUse" x1="102.9295" y1="36.6153" x2="102.9295" y2="46.0572" gradientTransform="matrix(-1 0 0 1 137.9449 0)">
			<stop  offset="0" style="stop-color:#000000;stop-opacity:0"/>
			<stop  offset="1" style="stop-color:#000000"/>
		</linearGradient>
		<path class="st11" d="M33.9,56.5c0,0,0.7-0.4,1.1-1.6c0.5-1.1,1.1-4.3,1.1-4.3s-0.6,0.4-1,1.3c-0.4,0.7,0,0.6-0.5,2.9
			C34.6,55.1,34,55.9,33.9,56.5z"/>
	</g>
	<path class="st12" d="M86.2,55.2c0,0-1.4-3.8-3.3-1.7c-1.9,2.1-3.3,3.7-4.1,6.7s2.5,2.9,2.5,2.9s2.7,1,3.9-0.6c0,0-0.1-2.4,0.6-3.6
		S86.2,55.2,86.2,55.2z"/>
	<path class="st12" d="M72.6,21.4c0,0,1.9,0.5,0.7,5s-2,4-2,4S67,31.1,66,28.8C66,28.8,68.2,19.8,72.6,21.4z"/>
</g>
</svg>
