<?xml version="1.0" encoding="utf-8"?>
<!-- Generator: Adobe Illustrator 23.0.1, SVG Export Plug-In . SVG Version: 6.00 Build 0)  -->
<svg version="1.1" id="圖層_1" xmlns="http://www.w3.org/2000/svg" xmlns:xlink="http://www.w3.org/1999/xlink" x="0px" y="0px"
	 viewBox="0 0 20 20" style="enable-background:new 0 0 20 20;" xml:space="preserve">
<style type="text/css">
	.st0{fill:#3D3D3D;}
</style>
<g>
	<path class="st0" d="M3.7,13c0.5-0.5,1-1,1.4-1.5C5.6,11,6,10.6,6.5,10c-0.8,0-1.6,0-2.3,0C4.1,8.4,5.1,6.4,6.6,5.4
		c2.3-1.6,4.6-1.5,6.9-0.1c0.2-0.3,0.4-0.6,0.6-0.9c-1.5-1.3-4.1-1.7-6.2-1C4.8,4.5,3.3,6.8,3.1,10c-0.7,0-1.4,0-2.2,0
		C1.8,11.1,2.7,12,3.7,13z"/>
	<path class="st0" d="M19.2,9.9c-0.7,0-1.4,0-2.2,0c-0.2,3.2-1.7,5.5-4.8,6.6c-2.2,0.8-4.3,0.4-6.3-0.9c0.2-0.3,0.4-0.6,0.7-0.9
		c2.3,1.4,4.6,1.5,6.8,0c1.6-1.1,2.3-2.7,2.4-4.7c-0.8,0-1.5,0-2.2,0c0.9-0.9,1.8-1.8,2.8-2.8C17.3,8,18.2,9,19.2,9.9
		C19.2,9.9,19.2,9.9,19.2,9.9z"/>
	<path class="st0" d="M3.7,13c-0.9-1-1.9-2-2.8-3c0.8,0,1.5,0,2.2,0c0.2-3.2,1.8-5.5,4.8-6.6c2.1-0.7,4.7-0.3,6.2,1
		c-0.2,0.3-0.4,0.6-0.6,0.9c-2.3-1.4-4.6-1.5-6.9,0.1c-1.5,1-2.4,3-2.3,4.6c0.7,0,1.4,0,2.3,0c-0.5,0.6-1,1-1.4,1.5
		C4.6,12,4.2,12.5,3.7,13z"/>
	<path class="st0" d="M11.7,10.4c1.1,0.7,1.7,1.6,1.8,3c-0.4,0-0.7,0-1.1,0c-0.6-1.7-1.3-2.3-2.4-2.3c-1.2,0.1-1.9,0.8-2.3,2.3
		c-0.3,0-0.7,0-1.1,0c0-1.3,0.7-2.3,1.8-3c-0.5-0.6-0.7-1.3-0.6-2c0.1-0.5,0.4-1,0.8-1.3c0.9-0.7,2.2-0.7,3,0.1
		C12.5,8,12.5,9.2,11.7,10.4z M10,7.7c-0.6,0-1.2,0.5-1.2,1.2C8.8,9.5,9.4,10,10,10c0.6,0,1.2-0.5,1.2-1.2C11.2,8.2,10.6,7.7,10,7.7
		z"/>
</g>
</svg>
