<?xml version="1.0" encoding="utf-8"?>
<!-- Generator: Adobe Illustrator 22.1.0, SVG Export Plug-In . SVG Version: 6.00 Build 0)  -->
<svg version="1.1" id="圖層_1" xmlns="http://www.w3.org/2000/svg" xmlns:xlink="http://www.w3.org/1999/xlink" x="0px" y="0px"
	 viewBox="0 0 24 24" style="enable-background:new 0 0 24 24;" xml:space="preserve">
<style type="text/css">
	.st0{fill:#4886E7;}
</style>
<path class="st0" d="M20.6,7.7h-17C2,7.7,0.7,9,0.7,10.6v9.3c0,1.6,1.3,2.9,2.9,2.9h17c1.6,0,2.9-1.3,2.9-2.9v-9.3
	C23.5,9,22.2,7.7,20.6,7.7z M12.1,21.1c-3.2,0-5.8-2.6-5.8-5.8c0-3.2,2.6-5.8,5.8-5.8c3.2,0,5.8,2.6,5.8,5.8
	C17.9,18.4,15.3,21.1,12.1,21.1z"/>
<path class="st0" d="M15.9,14.1h-2.7v-2.7c0-0.3-0.3-0.6-0.6-0.6h-1c-0.3,0-0.6,0.3-0.6,0.6v2.7H8.3c-0.3,0-0.6,0.3-0.6,0.6v1
	c0,0.3,0.3,0.6,0.6,0.6H11V19c0,0.3,0.3,0.6,0.6,0.6h1c0.3,0,0.6-0.3,0.6-0.6v-2.7h2.7c0.3,0,0.6-0.3,0.6-0.6v-1
	C16.5,14.4,16.2,14.1,15.9,14.1z"/>
<path class="st0" d="M7.8,8.6V5.5l0-0.1l0.1,0h8l0.1,0l0,0.1v3.1h2V5.5c0-1.1-0.9-2.1-2.1-2.1h-8c-1.1,0-2.1,0.9-2.1,2.1v3.1H7.8z"
	/>
</svg>
