<?xml version="1.0" encoding="utf-8"?>
<!-- Generator: Adobe Illustrator 22.1.0, SVG Export Plug-In . SVG Version: 6.00 Build 0)  -->
<svg version="1.1" id="圖層_1" xmlns="http://www.w3.org/2000/svg" xmlns:xlink="http://www.w3.org/1999/xlink" x="0px" y="0px"
	 viewBox="0 0 30 33.1" style="enable-background:new 0 0 30 33.1;" xml:space="preserve">
<style type="text/css">
	.st0{fill:#727272;}
	.st1{fill:none;}
</style>
<path class="st0" d="M26,3.2v21.7H4.3V3.2H26 M27.7,0.1H2.6c-0.8,0-1.4,0.6-1.4,1.4v25.1c0,0.6,0.6,1.4,1.4,1.4h25.1
	c0.6,0,1.4-0.8,1.4-1.4V1.5C29.1,0.7,28.3,0.1,27.7,0.1z M13.6,6.3h9.3v3.1h-9.3V6.3z M13.6,12.5h9.3v3.1h-9.3V12.5z M13.6,18.7h9.3
	v3.1h-9.3V18.7z M7.4,6.3h3.1v3.1H7.4V6.3z M7.4,12.5h3.1v3.1H7.4V12.5z M7.4,18.7h3.1v3.1H7.4V18.7z"/>
<path class="st1" d="M0.7,0h28.8v28.8H0.7V0z"/>
</svg>
