<?xml version="1.0" encoding="utf-8"?>
<!-- Generator: Adobe Illustrator 22.1.0, SVG Export Plug-In . SVG Version: 6.00 Build 0)  -->
<svg version="1.1" id="圖層_1" xmlns="http://www.w3.org/2000/svg" xmlns:xlink="http://www.w3.org/1999/xlink" x="0px" y="0px"
	 viewBox="0 0 50 50" style="enable-background:new 0 0 50 50;" xml:space="preserve">
<style type="text/css">
	.st0{fill:#34C0F7;}
	.st1{fill:#FFFFFF;}
</style>
<polygon class="st0" points="0,0 0,49 49,0 "/>
<g>
	<path class="st1" d="M13.8,14.4V9l1.5,1.5c0.7,0.7,1.8,0.7,2.5,0c0.7-0.7,0.7-1.8,0-2.5l-4.3-4.3c-0.1-0.1-0.2-0.3-0.3-0.4
		c-0.4-0.4-0.8-0.5-1.3-0.5c-0.5,0-0.9,0.2-1.3,0.5c-0.1,0.1-0.2,0.2-0.3,0.4L6,8c-0.7,0.7-0.7,1.8,0,2.5c0.7,0.7,1.8,0.7,2.5,0
		l1.7-1.7v5.7c-3.4,0.9-6,3.9-6,7.6c0,4.3,3.5,7.9,7.9,7.9s7.9-3.5,7.9-7.9C20,18.3,17.3,15.2,13.8,14.4z M12.1,26.4
		c-2.4,0-4.3-1.9-4.3-4.3s1.9-4.3,4.3-4.3s4.3,1.9,4.3,4.3S14.5,26.4,12.1,26.4z"/>
</g>
</svg>
