<?xml version="1.0" encoding="utf-8"?>
<!-- Generator: Adobe Illustrator 23.0.1, SVG Export Plug-In . SVG Version: 6.00 Build 0)  -->
<svg version="1.1" id="圖層_1" xmlns="http://www.w3.org/2000/svg" xmlns:xlink="http://www.w3.org/1999/xlink" x="0px" y="0px"
	 viewBox="0 0 20 20" style="enable-background:new 0 0 20 20;" xml:space="preserve">
<style type="text/css">
	.st0{fill:#3D3D3D;}
</style>
<path class="st0" d="M16,3.7H3.8c-0.9,0-1.7,0.8-1.7,1.7v7.8c0,0.9,0.8,1.7,1.7,1.7h4.3v0.8h-1l-0.6,0.6v0.8h6.9v-0.8l-0.6-0.6h-1
	v-0.8H16c0.9,0,1.7-0.8,1.7-1.7V5.4C17.7,4.5,17,3.7,16,3.7z M15.8,13H4V5.6h11.8V13z"/>
<rect x="5.7" y="7" class="st0" width="1.7" height="1.7"/>
<rect x="5.7" y="9.8" class="st0" width="1.7" height="1.7"/>
<rect x="8.2" y="7" class="st0" width="6" height="1.7"/>
<rect x="8.2" y="9.8" class="st0" width="6" height="1.7"/>
</svg>
