<?xml version="1.0" encoding="utf-8"?>
<!-- Generator: Adobe Illustrator 23.0.1, SVG Export Plug-In . SVG Version: 6.00 Build 0)  -->
<svg version="1.1" id="圖層_1" xmlns="http://www.w3.org/2000/svg" xmlns:xlink="http://www.w3.org/1999/xlink" x="0px" y="0px"
	 viewBox="0 0 20 20" style="enable-background:new 0 0 20 20;" xml:space="preserve">
<style type="text/css">
	.st0{fill:#3D3D3D;}
	.st1{fill:none;stroke:#3D3D3D;stroke-width:0.5716;stroke-linecap:round;stroke-linejoin:round;}
	.st2{fill:none;stroke:#3D3D3D;stroke-width:0.5716;stroke-linecap:round;stroke-linejoin:round;stroke-dasharray:1.0488,1.0488;}
</style>
<g>
	<path class="st0" d="M2.6,7.2c0-1.1,0.9-2,2-2c1.1,0,2,0.9,2,2c0,1.1-0.9,2-2,2C3.5,9.2,2.6,8.3,2.6,7.2z M11.3,9
		C11,8.9,10.6,9,10.4,9.3l-1.3,2.2l-1.9-1C6.4,9.9,6,9.6,4.8,9.6H4.6H4.4c-2.4,0.3-2,2.2-2,2.2l0.3,6l4.2,0l-0.2-5.9L9,12.9
		C9.1,13,9.2,13,9.3,13c0.2,0,0.4-0.1,0.6-0.3l1.7-2.7C11.8,9.6,11.7,9.2,11.3,9z M13.2,6.1L13,6l-1.6,2.8l0.2,0.1L13.2,6.1z"/>
</g>
<path class="st0" d="M16.8,3.1H9c-0.5,0-0.9,0.4-0.9,0.8V10c0,0.5,0.4,0.8,0.9,0.8h0l0.5-0.8H9L9,10V3.9L9,3.9h7.8l0.1,0.1V10
	l-0.1,0.1h-4.6l-0.5,0.8h5c0.5,0,0.9-0.4,0.9-0.8V3.9C17.7,3.5,17.3,3.1,16.8,3.1z"/>
<g>
	<g>
		<line class="st1" x1="9.7" y1="5" x2="10.3" y2="5"/>
		<line class="st2" x1="11.4" y1="5" x2="15" y2="5"/>
		<line class="st1" x1="15.6" y1="5" x2="16.1" y2="5"/>
	</g>
</g>
<path class="st0" d="M9.8,6.6h0.6c0.2,0,0.3-0.1,0.3-0.3c0-0.2-0.1-0.3-0.3-0.3H9.8C9.6,6,9.5,6.1,9.5,6.3C9.5,6.4,9.6,6.6,9.8,6.6"
	/>
<path class="st0" d="M13.8,6.6h0.8c0.2,0,0.3-0.1,0.3-0.3c0-0.2-0.1-0.3-0.3-0.3h-0.8c-0.2,0-0.3,0.1-0.3,0.3
	C13.5,6.4,13.6,6.6,13.8,6.6z"/>
<path class="st0" d="M11.4,6.6h0.5c0.2,0,0.3-0.1,0.3-0.3C12.2,6.1,12,6,11.9,6h-0.5c-0.2,0-0.3,0.1-0.3,0.3
	C11.1,6.4,11.2,6.6,11.4,6.6z"/>
<path class="st0" d="M15.6,6.6h0.6c0.2,0,0.3-0.1,0.3-0.3c0-0.2-0.1-0.3-0.3-0.3h-0.6c-0.2,0-0.3,0.1-0.3,0.3
	C15.3,6.4,15.4,6.6,15.6,6.6"/>
<path class="st0" d="M9.7,7.8h0.9c0.2,0,0.3-0.1,0.3-0.3c0-0.2-0.1-0.3-0.3-0.3H9.7c-0.2,0-0.3,0.1-0.3,0.3C9.5,7.7,9.6,7.8,9.7,7.8
	"/>
<path class="st0" d="M13.5,7.8h1c0.2,0,0.3-0.1,0.3-0.3c0-0.2-0.1-0.3-0.3-0.3h-1c-0.2,0-0.3,0.1-0.3,0.3
	C13.2,7.7,13.3,7.8,13.5,7.8z"/>
<path class="st0" d="M15.6,7.8h0.6c0.2,0,0.3-0.1,0.3-0.3c0-0.2-0.1-0.3-0.3-0.3h-0.6c-0.2,0-0.3,0.1-0.3,0.3
	C15.3,7.7,15.4,7.8,15.6,7.8"/>
<path class="st0" d="M9.7,9.1h0.6c0.2,0,0.3-0.1,0.3-0.3c0-0.2-0.1-0.3-0.3-0.3H9.7c-0.2,0-0.3,0.1-0.3,0.3C9.5,9,9.6,9.1,9.7,9.1"
	/>
<path class="st0" d="M13.5,9.1h1c0.2,0,0.3-0.1,0.3-0.3c0-0.2-0.1-0.3-0.3-0.3h-1c-0.2,0-0.3,0.1-0.3,0.3C13.2,9,13.3,9.1,13.5,9.1z
	"/>
<path class="st0" d="M15.6,9.1h0.6c0.2,0,0.3-0.1,0.3-0.3c0-0.2-0.1-0.3-0.3-0.3h-0.6c-0.2,0-0.3,0.1-0.3,0.3
	C15.3,9,15.4,9.1,15.6,9.1"/>
</svg>
